<svg xmlns="http://www.w3.org/2000/svg" xmlns:xlink="http://www.w3.org/1999/xlink" viewBox="0 0 42 42" style="enable-background:new 0 0 42 42; stroke: transparent;" xml:space="preserve">
<style type="text/css">
	.st0{fill:#231F20;}
</style>
<g>
	<g>
		<path class="st0" d="M30.9,39.5c-4.9,2.7-10.6,3.2-16,1.6c-5.4-1.6-9.8-5.2-12.4-10.2c-2.7-4.9-3.2-10.6-1.6-16    C2.5,9.6,6.1,5.2,11.1,2.5c4.9-2.7,10.6-3.2,16-1.6c5.4,1.6,9.8,5.2,12.4,10.2c2.7,4.9,3.2,10.6,1.6,16    C39.5,32.5,35.9,36.9,30.9,39.5z M11.7,3.6C2,8.7-1.6,20.7,3.6,30.4s17.2,13.2,26.8,8.1s13.2-17.2,8.1-26.8S21.3-1.6,11.7,3.6z"></path>
	</g>
	<ellipse transform="matrix(0.8813 -0.4725 0.4725 0.8813 -6.6431 7.7577)" class="st0" cx="12.1" cy="17.1" rx="2.1" ry="3.1"></ellipse>
	<ellipse transform="matrix(0.8813 -0.4725 0.4725 0.8813 -2.773 12.0118)" class="st0" cx="22.5" cy="11.5" rx="2.1" ry="3.1"></ellipse>
	<g>
		<path class="st0" d="M27.2,32.5c-5.5,2.9-12.3,0.9-15.2-4.6c-0.2-0.3,0-0.7,0.2-0.8c0.3-0.2,0.7,0,0.8,0.2    c2.6,4.9,8.7,6.7,13.6,4.1c4.9-2.6,6.7-8.7,4.1-13.6c-0.2-0.3,0-0.7,0.2-0.8c0.3-0.2,0.7,0,0.8,0.2C34.7,22.7,32.6,29.6,27.2,32.5    z"></path>
	</g>
</g>
</svg>