<svg xmlns="http://www.w3.org/2000/svg" xmlns:xlink="http://www.w3.org/1999/xlink" viewBox="0 0 154 153" style="enable-background:new 0 0 100 84; stroke: transparent;" xml:space="preserve">

<path style="fill:none;" d="M142-206.7c0,37.4-30.3,67.8-67.8,67.8S6.5-169.3,6.5-206.7s30.3-67.7,67.8-67.7  S142-244.1,142-206.7z"></path>
<text><textPath xlink:href="#SVGID_x5F_1_x5F_" startOffset="83.6263%">
<tspan style="font-family:'Roboto-Medium'; font-size:13px; letter-spacing:71;">freemium portfolio web design - freemium portfolio web design - </tspan></textPath>
</text>
<g>
	<g>
		<path d="M34.8,23.8l-3.5-4.5l-0.8,0.6L29.7,19l0.8-0.6l-0.4-0.5c-0.5-0.6-0.7-1.2-0.6-1.8c0.1-0.6,0.4-1.1,1-1.6    c0.2-0.2,0.5-0.3,0.8-0.4l0.7,1c-0.2,0.1-0.3,0.2-0.5,0.3c-0.6,0.5-0.6,1-0.2,1.6l0.4,0.5l1.1-0.9l0.7,0.9l-1.1,0.9l3.5,4.5    L34.8,23.8z"></path>
		<path d="M38.6,14.4c-0.2,0.1-0.4,0.2-0.6,0.3c-0.6,0.4-0.8,0.9-0.7,1.5l2.6,3.9l-1.3,0.8l-3.8-5.7l1.2-0.8l0.5,0.6    c0-0.7,0.2-1.2,0.8-1.6c0.2-0.1,0.4-0.2,0.5-0.2L38.6,14.4z"></path>
		<path d="M45.7,16.8c-0.9,0.5-1.7,0.6-2.5,0.3c-0.8-0.3-1.5-0.8-2-1.7l-0.1-0.2c-0.3-0.6-0.5-1.2-0.5-1.8c0-0.6,0.1-1.1,0.4-1.6    c0.3-0.5,0.7-0.9,1.2-1.1c0.8-0.4,1.6-0.5,2.3-0.2c0.7,0.3,1.3,0.9,1.9,1.9l0.3,0.5l-4,2.1c0.3,0.5,0.7,0.8,1.1,0.9    c0.4,0.1,0.9,0.1,1.3-0.2c0.6-0.3,1-0.9,1.1-1.6l1.1,0.3c-0.1,0.5-0.2,0.9-0.5,1.4C46.6,16.2,46.2,16.5,45.7,16.8z M42.8,11.7    c-0.4,0.2-0.6,0.5-0.7,0.9c-0.1,0.4,0,0.8,0.1,1.3l2.6-1.4l-0.1-0.1c-0.3-0.4-0.6-0.7-0.9-0.8C43.5,11.5,43.1,11.5,42.8,11.7z"></path>
		<path d="M52.6,13.6c-0.9,0.4-1.8,0.4-2.5,0c-0.8-0.3-1.4-1-1.7-2l-0.1-0.2c-0.3-0.6-0.4-1.3-0.3-1.9c0-0.6,0.2-1.1,0.6-1.6    s0.8-0.8,1.3-1c0.9-0.3,1.6-0.3,2.3,0c0.7,0.4,1.2,1.1,1.6,2.1l0.2,0.6l-4.2,1.6c0.3,0.5,0.6,0.9,1,1c0.4,0.2,0.9,0.2,1.3,0    c0.7-0.3,1.1-0.7,1.3-1.4l1.1,0.4c-0.1,0.5-0.3,0.9-0.7,1.3C53.6,13.1,53.2,13.4,52.6,13.6z M50.3,8.2c-0.4,0.2-0.7,0.4-0.8,0.8    c-0.1,0.4-0.1,0.8,0,1.3l2.7-1.1l0-0.1c-0.2-0.5-0.5-0.8-0.8-0.9C51.1,8.1,50.7,8.1,50.3,8.2z"></path>
		<path d="M56.7,4.9l0.2,0.7c0.3-0.7,0.9-1.1,1.7-1.3c0.9-0.2,1.6,0,2.1,0.6c0.3-0.8,0.9-1.3,1.8-1.5c0.7-0.2,1.3-0.1,1.8,0.2    c0.5,0.3,0.8,0.9,1,1.7l1,4.4L64.8,10l-1-4.3c-0.1-0.4-0.3-0.7-0.5-0.9c-0.2-0.2-0.6-0.2-1-0.1c-0.3,0.1-0.6,0.2-0.8,0.5    c-0.2,0.2-0.3,0.5-0.3,0.8l1.1,4.6l-1.5,0.4l-1-4.4c-0.2-0.8-0.7-1.1-1.5-0.9c-0.6,0.1-1,0.5-1.1,1l1.1,4.8l-1.5,0.4l-1.6-6.7    L56.7,4.9z"></path>
		<path d="M67.6,0.9c0-0.2,0-0.4,0.2-0.6C67.9,0.1,68.1,0,68.3,0c0.3,0,0.5,0,0.7,0.2c0.2,0.1,0.3,0.3,0.3,0.6c0,0.2,0,0.4-0.2,0.6    c-0.1,0.2-0.3,0.3-0.6,0.3c-0.3,0-0.5,0-0.7-0.2C67.7,1.3,67.6,1.2,67.6,0.9z M70.2,9.3l-1.5,0.2l-0.8-6.8l1.5-0.2L70.2,9.3z"></path>
		<path d="M76.7,8.3c-0.4,0.5-1.1,0.8-1.9,0.8c-0.7,0-1.3-0.2-1.7-0.6c-0.4-0.4-0.6-1-0.6-1.9l-0.1-4.4l1.5,0L74,6.6    c0,0.9,0.4,1.3,1.1,1.3c0.7,0,1.2-0.3,1.5-0.8l-0.1-4.9l1.5,0l0.2,6.8l-1.5,0L76.7,8.3z"></path>
		<path d="M82.6,2.3l0,0.7c0.5-0.5,1.2-0.7,2.1-0.6c0.9,0.1,1.5,0.5,1.7,1.3C87,3,87.7,2.7,88.6,2.8c0.8,0.1,1.3,0.4,1.6,0.8    c0.3,0.5,0.4,1.1,0.3,1.9L90,10l-1.5-0.2L89,5.4c0.1-0.4,0-0.8-0.2-1c-0.2-0.2-0.5-0.4-0.9-0.4c-0.3,0-0.6,0-0.9,0.2    c-0.2,0.2-0.4,0.4-0.6,0.7L86,9.6l-1.5-0.2L85,4.9c0.1-0.8-0.3-1.3-1.1-1.3c-0.6-0.1-1.1,0.1-1.4,0.6l-0.6,4.9l-1.5-0.2l0.8-6.8    L82.6,2.3z"></path>
		<path d="M102.8,10.4c-0.3,1-0.8,1.7-1.5,2.2c-0.7,0.4-1.4,0.5-2.1,0.3c-0.7-0.2-1.2-0.7-1.5-1.3l-1,3.1l-1.5-0.5l3-9l1.3,0.5    l-0.2,0.7c0.6-0.4,1.3-0.4,2-0.2c0.8,0.3,1.3,0.8,1.6,1.5C103.2,8.3,103.2,9.2,102.8,10.4L102.8,10.4z M101.4,9.7    c0.2-0.6,0.3-1.2,0.1-1.7c-0.1-0.5-0.4-0.8-0.9-0.9C100,6.9,99.5,7,99.1,7.4l-1,2.9c0.1,0.6,0.4,1,1,1.2c0.5,0.2,0.9,0.1,1.3-0.2    C100.8,11,101.1,10.5,101.4,9.7z"></path>
		<path d="M104.8,11c0.3-0.6,0.7-1.1,1.1-1.5c0.5-0.4,1-0.6,1.5-0.6c0.6-0.1,1.1,0.1,1.7,0.3c0.8,0.4,1.4,1,1.6,1.8    c0.3,0.8,0.2,1.6-0.2,2.5l-0.2,0.3c-0.3,0.6-0.7,1.1-1.1,1.5c-0.5,0.4-1,0.6-1.5,0.6c-0.6,0.1-1.1-0.1-1.7-0.3    c-0.9-0.4-1.4-1-1.7-1.9C104.2,13,104.3,12.1,104.8,11L104.8,11z M106.1,11.8c-0.3,0.6-0.4,1.2-0.3,1.7c0.1,0.5,0.4,0.8,0.8,1.1    c0.5,0.2,0.9,0.2,1.4,0c0.4-0.2,0.8-0.7,1.2-1.4c0.3-0.6,0.4-1.2,0.3-1.7c-0.1-0.5-0.4-0.9-0.8-1.1c-0.5-0.2-0.9-0.2-1.3,0    C106.9,10.6,106.5,11.1,106.1,11.8z"></path>
		<path d="M116.7,15.1c-0.2-0.1-0.3-0.3-0.5-0.4c-0.6-0.4-1.1-0.4-1.6,0l-2.4,4l-1.3-0.8l3.6-5.9l1.3,0.8l-0.4,0.7    c0.6-0.3,1.2-0.3,1.8,0c0.2,0.1,0.3,0.2,0.4,0.4L116.7,15.1z"></path>
		<path d="M122.1,15.2l-1,1.3l1,0.7l-0.7,0.9l-1-0.7l-2.2,3.1c-0.2,0.2-0.2,0.4-0.2,0.6c0,0.2,0.1,0.3,0.3,0.5    c0.1,0.1,0.3,0.2,0.5,0.3l-0.7,1c-0.3-0.1-0.6-0.3-0.9-0.5c-1-0.7-1.1-1.6-0.3-2.6l2.3-3.1l-0.9-0.7l0.7-0.9l0.9,0.7l1-1.3    L122.1,15.2z"></path>
		<path d="M120,24.3l3.7-4.4l-0.8-0.7l0.7-0.9l0.8,0.7l0.4-0.5c0.5-0.6,1-0.9,1.6-0.9c0.6,0,1.2,0.2,1.8,0.7    c0.2,0.2,0.4,0.4,0.6,0.6l-0.8,0.9c-0.1-0.1-0.2-0.3-0.4-0.4c-0.6-0.5-1.1-0.4-1.6,0.2l-0.4,0.5l1.1,0.9l-0.7,0.9l-1.1-0.9    l-3.7,4.4L120,24.3z"></path>
		<path d="M125.9,24.8c0.5-0.5,1-0.8,1.6-1c0.6-0.2,1.1-0.2,1.7-0.1c0.5,0.1,1,0.4,1.5,0.9c0.6,0.7,1,1.4,0.9,2.2    c0,0.8-0.4,1.6-1.1,2.3l-0.3,0.3c-0.5,0.5-1,0.8-1.6,1c-0.6,0.2-1.1,0.2-1.7,0.1s-1-0.4-1.5-0.9c-0.7-0.7-1-1.5-0.9-2.3    C124.7,26.4,125.1,25.6,125.9,24.8L125.9,24.8z M126.9,26c-0.5,0.5-0.8,1-0.9,1.5c-0.1,0.5,0.1,0.9,0.4,1.3    c0.4,0.4,0.8,0.5,1.3,0.4c0.5-0.1,1-0.4,1.6-0.9c0.5-0.5,0.8-1,0.9-1.5c0.1-0.5-0.1-0.9-0.4-1.3c-0.3-0.4-0.8-0.5-1.3-0.4    C128,25.1,127.4,25.5,126.9,26z"></path>
		<path d="M130.1,34.7l-1-1.2l7.6-6.1l1,1.2L130.1,34.7z"></path>
		<path d="M132.6,38l-0.9-1.3l5.6-4l0.9,1.3L132.6,38z M138.7,31.6c0.2-0.1,0.4-0.2,0.6-0.2c0.2,0,0.4,0.2,0.6,0.4    c0.2,0.2,0.2,0.4,0.2,0.7c0,0.2-0.2,0.4-0.3,0.5c-0.2,0.1-0.4,0.2-0.6,0.2c-0.2,0-0.4-0.2-0.6-0.4c-0.2-0.2-0.2-0.4-0.2-0.7    C138.4,31.9,138.5,31.8,138.7,31.6z"></path>
		<path d="M136.8,37.9c0.6-0.3,1.2-0.5,1.8-0.6c0.6,0,1.1,0.1,1.6,0.3s0.9,0.7,1.2,1.2c0.5,0.8,0.6,1.6,0.4,2.4    c-0.2,0.8-0.7,1.5-1.6,2l-0.3,0.2c-0.6,0.3-1.2,0.5-1.8,0.6c-0.6,0-1.1-0.1-1.6-0.3c-0.5-0.3-0.9-0.7-1.2-1.2    c-0.5-0.8-0.6-1.7-0.3-2.5S135.8,38.5,136.8,37.9L136.8,37.9z M137.5,39.3c-0.6,0.4-1,0.8-1.2,1.2c-0.2,0.5-0.2,0.9,0.1,1.4    c0.3,0.4,0.6,0.7,1.1,0.7c0.5,0,1.1-0.1,1.8-0.5c0.6-0.4,1-0.8,1.2-1.2s0.2-0.9-0.1-1.4c-0.3-0.4-0.6-0.7-1.1-0.7    C138.8,38.7,138.2,38.9,137.5,39.3z"></path>
		<path d="M143.6,55.5l4.8-0.5l0.5,1.4l-7.1,0.5l-0.4-1.2l4-2.9l-4.9,0.2l-0.4-1.2l5.9-4l0.5,1.4l-4.1,2.6l4.9-0.2l0.4,1.1    L143.6,55.5z"></path>
		<path d="M143.2,63.3c-0.2-1-0.1-1.8,0.4-2.5c0.5-0.7,1.2-1.2,2.2-1.4l0.2,0c0.7-0.1,1.3-0.1,1.9,0c0.6,0.2,1.1,0.4,1.5,0.8    c0.4,0.4,0.6,0.9,0.8,1.5c0.2,0.9,0,1.7-0.4,2.3c-0.5,0.6-1.3,1-2.3,1.3l-0.6,0.1l-0.9-4.4c-0.5,0.2-0.9,0.4-1.2,0.8    c-0.3,0.4-0.3,0.8-0.2,1.3c0.1,0.7,0.5,1.2,1.2,1.5l-0.6,1c-0.5-0.2-0.8-0.5-1.2-0.9C143.6,64.3,143.4,63.9,143.2,63.3z M149,61.9    c-0.1-0.4-0.3-0.7-0.6-0.9c-0.3-0.2-0.8-0.3-1.3-0.2l0.6,2.9l0.1,0c0.5-0.1,0.9-0.3,1.1-0.6C149,62.7,149,62.4,149,61.9z"></path>
		<path d="M148,73.5c-1.1,0.1-1.9-0.1-2.6-0.5c-0.7-0.4-1-1-1.1-1.9c-0.1-0.8,0.2-1.4,0.7-1.9l-0.7,0l-0.1-1.4l9.7-0.8l0.1,1.5    l-3.5,0.3c0.6,0.4,0.9,1,0.9,1.7c0.1,0.8-0.2,1.5-0.8,2C150.1,73.1,149.2,73.4,148,73.5L148,73.5z M148,72    c0.7-0.1,1.3-0.2,1.6-0.5c0.3-0.3,0.5-0.7,0.5-1.2c-0.1-0.7-0.4-1.1-1-1.3l-2.8,0.2c-0.6,0.3-0.8,0.8-0.8,1.5    c0,0.5,0.3,0.8,0.6,1.1c0.4,0.2,0.9,0.3,1.7,0.3L148,72z"></path>
		<path d="M148.1,79.8c1.1,0.1,1.9,0.4,2.5,1c0.6,0.5,0.9,1.2,0.8,2c-0.1,0.7-0.4,1.3-0.9,1.7l3.5,0.3l-0.1,1.5l-9.7-0.9l0.1-1.4    l0.7,0c-0.5-0.5-0.7-1.1-0.7-1.9c0.1-0.8,0.5-1.4,1.1-1.9C146.1,79.9,147,79.7,148.1,79.8z M147.9,81.3c-0.7-0.1-1.2,0-1.7,0.3    c-0.4,0.2-0.6,0.6-0.7,1.1c-0.1,0.6,0.2,1.1,0.7,1.4l2.9,0.3c0.6-0.2,0.9-0.7,0.9-1.3c0-0.5-0.1-0.9-0.5-1.2    C149.2,81.6,148.7,81.4,147.9,81.3z"></path>
		<path d="M143.1,90.7c0.2-1,0.7-1.7,1.4-2.1c0.7-0.5,1.6-0.6,2.6-0.4l0.2,0c0.7,0.1,1.2,0.4,1.7,0.8c0.5,0.4,0.8,0.8,1,1.3    c0.2,0.5,0.2,1.1,0.1,1.7c-0.2,0.9-0.6,1.6-1.3,1.9c-0.7,0.4-1.6,0.5-2.6,0.2l-0.6-0.1l0.9-4.4c-0.6-0.1-1,0-1.4,0.3    c-0.4,0.3-0.6,0.6-0.7,1.1c-0.1,0.7,0,1.3,0.5,1.9l-0.9,0.7c-0.3-0.4-0.6-0.8-0.7-1.3C143,91.7,142.9,91.2,143.1,90.7z     M148.9,91.7c0.1-0.4,0-0.8-0.2-1.1c-0.2-0.3-0.6-0.6-1.1-0.7l-0.6,2.9l0.1,0c0.5,0.1,0.9,0,1.2-0.2    C148.6,92.4,148.8,92.1,148.9,91.7z"></path>
		<path d="M142.7,99.4c0.3,0.1,0.5,0,0.7-0.1c0.2-0.2,0.4-0.5,0.7-0.9c0.3-0.5,0.5-0.8,0.8-1.1c0.6-0.6,1.2-0.8,1.9-0.6    c0.6,0.2,1,0.6,1.2,1.2c0.2,0.6,0.2,1.3,0,2c-0.3,0.8-0.7,1.3-1.2,1.7c-0.5,0.4-1.1,0.4-1.7,0.2l0.5-1.5c0.3,0.1,0.5,0.1,0.8-0.1    c0.3-0.1,0.4-0.4,0.6-0.7c0.1-0.3,0.1-0.6,0-0.9c-0.1-0.3-0.2-0.4-0.5-0.5c-0.2-0.1-0.4,0-0.6,0.1c-0.2,0.1-0.4,0.5-0.8,1    c-0.3,0.5-0.6,0.9-0.9,1.2c-0.3,0.3-0.6,0.4-0.9,0.5c-0.3,0.1-0.6,0.1-1-0.1c-0.6-0.2-1-0.6-1.2-1.2c-0.2-0.6-0.2-1.3,0.1-2.1    c0.2-0.5,0.4-1,0.8-1.3s0.7-0.6,1.1-0.7c0.4-0.1,0.8-0.1,1.2,0l-0.5,1.4c-0.4-0.1-0.7,0-0.9,0.1s-0.5,0.5-0.6,0.9    c-0.1,0.4-0.1,0.7-0.1,1C142.3,99.2,142.5,99.3,142.7,99.4z"></path>
		<path d="M139,103.7l0.6-1.4l6.3,2.7l-0.6,1.4L139,103.7z M147.6,105.5c0.2,0.1,0.4,0.2,0.5,0.4c0.1,0.2,0.1,0.4,0,0.7    c-0.1,0.3-0.3,0.4-0.5,0.5c-0.2,0.1-0.4,0.1-0.6,0c-0.2-0.1-0.4-0.2-0.4-0.4c-0.1-0.2-0.1-0.4,0-0.7c0.1-0.3,0.3-0.4,0.5-0.5    C147.2,105.5,147.4,105.5,147.6,105.5z"></path>
		<path d="M141.2,107.3c0.9,0.5,1.6,1.1,1.9,1.9c0.3,0.7,0.3,1.5-0.1,2.2c-0.4,0.7-0.9,1.1-1.6,1.2l0.6,0.4l-0.7,1.2l-5.9-3.1    c-0.8-0.4-1.3-1-1.5-1.7c-0.2-0.7-0.1-1.5,0.4-2.4c0.2-0.4,0.6-0.8,1-1.1c0.4-0.3,0.8-0.5,1.2-0.6l0.5,1.1    c-0.7,0.2-1.2,0.5-1.6,1.1c-0.2,0.4-0.3,0.9-0.2,1.3c0.1,0.4,0.4,0.7,0.9,1l0.4,0.2c-0.2-0.6-0.2-1.3,0.2-1.9    c0.4-0.7,1-1.1,1.8-1.3C139.3,106.6,140.2,106.8,141.2,107.3z M140.4,108.6c-0.6-0.3-1.2-0.5-1.6-0.4c-0.5,0.1-0.8,0.3-1.1,0.7    c-0.3,0.5-0.3,1.1,0.1,1.6l2.7,1.4c0.6,0,1-0.3,1.3-0.8c0.2-0.4,0.2-0.9,0-1.3C141.5,109.4,141.1,109,140.4,108.6z"></path>
		<path d="M138.9,118l-0.7-0.4c0.2,0.8,0.1,1.5-0.4,2.2c-0.8,1.2-1.9,1.3-3.3,0.4l-3.7-2.6l0.9-1.3l3.6,2.5c0.4,0.2,0.7,0.4,1,0.3    c0.3,0,0.5-0.2,0.8-0.6c0.4-0.5,0.4-1,0.1-1.6l-4-2.8l0.9-1.3l5.6,3.9L138.9,118z"></path>
		<path d="M127.1,126.7l2.3-2.4l0.9,0.9l-2.3,2.4L127.1,126.7z"></path>
		<path d="M119.8,128.9l3.6,4.5l0.8-0.7l0.7,0.9l-0.8,0.7l0.4,0.5c0.5,0.6,0.7,1.2,0.6,1.8c-0.1,0.6-0.4,1.1-1,1.6    c-0.2,0.2-0.5,0.3-0.7,0.4l-0.7-1c0.2-0.1,0.3-0.2,0.5-0.3c0.6-0.5,0.6-1,0.2-1.6l-0.4-0.5l-1.1,0.9l-0.7-0.9l1.1-0.9l-3.6-4.5    L119.8,128.9z"></path>
		<path d="M116.1,138.3c0.2-0.1,0.4-0.2,0.5-0.3c0.6-0.4,0.8-0.9,0.7-1.5l-2.6-3.9l1.3-0.9l3.8,5.7l-1.2,0.8l-0.5-0.6    c0,0.7-0.2,1.2-0.8,1.6c-0.2,0.1-0.3,0.2-0.5,0.2L116.1,138.3z"></path>
		<path d="M109,136c0.9-0.5,1.7-0.6,2.5-0.3c0.8,0.2,1.5,0.8,2,1.7l0.1,0.2c0.3,0.6,0.5,1.2,0.5,1.8c0,0.6-0.1,1.1-0.4,1.6    c-0.3,0.5-0.7,0.9-1.2,1.2c-0.8,0.4-1.6,0.5-2.3,0.3c-0.7-0.3-1.4-0.9-1.9-1.9l-0.3-0.5l3.9-2.1c-0.3-0.5-0.7-0.8-1.1-0.9    c-0.4-0.1-0.9-0.1-1.3,0.2c-0.6,0.3-1,0.9-1.1,1.6l-1.1-0.3c0-0.5,0.2-0.9,0.5-1.4C108.1,136.6,108.5,136.2,109,136z M112,141    c0.4-0.2,0.6-0.5,0.7-0.9c0.1-0.4,0-0.8-0.2-1.3l-2.6,1.4l0.1,0.1c0.3,0.4,0.6,0.7,0.9,0.8C111.3,141.3,111.6,141.2,112,141z"></path>
		<path d="M102.1,139.2c0.9-0.4,1.8-0.4,2.5,0c0.8,0.3,1.4,1,1.8,1.9l0.1,0.2c0.3,0.6,0.4,1.2,0.3,1.8c0,0.6-0.2,1.1-0.6,1.6    c-0.3,0.5-0.8,0.8-1.3,1c-0.9,0.4-1.6,0.3-2.3,0c-0.7-0.4-1.2-1-1.7-2.1l-0.2-0.6l4.2-1.7c-0.3-0.5-0.6-0.9-1-1    c-0.4-0.2-0.9-0.2-1.3,0c-0.7,0.3-1.1,0.7-1.3,1.4l-1.1-0.4c0.1-0.5,0.3-0.9,0.7-1.3C101.1,139.7,101.6,139.4,102.1,139.2z     M104.5,144.6c0.4-0.2,0.7-0.4,0.8-0.8c0.1-0.4,0.1-0.8,0-1.3l-2.7,1.1l0,0.1c0.2,0.5,0.5,0.8,0.8,0.9    C103.7,144.7,104.1,144.7,104.5,144.6z"></path>
		<path d="M98.2,148l-0.2-0.7c-0.3,0.7-0.9,1.1-1.7,1.3c-0.9,0.2-1.6,0-2.1-0.6c-0.3,0.8-0.9,1.3-1.8,1.5c-0.7,0.2-1.3,0.1-1.8-0.2    c-0.5-0.3-0.8-0.9-1-1.7l-1.1-4.4L90,143l1.1,4.3c0.1,0.4,0.3,0.7,0.5,0.9c0.2,0.2,0.6,0.2,1,0.1c0.3-0.1,0.6-0.2,0.8-0.5    c0.2-0.2,0.3-0.5,0.3-0.8l-1.1-4.6L94,142l1.1,4.4c0.2,0.8,0.7,1.1,1.5,0.9c0.6-0.1,1-0.5,1.1-1l-1.2-4.8l1.5-0.4l1.6,6.7    L98.2,148z"></path>
		<path d="M84.6,143.7l1.5-0.2l0.8,6.8l-1.5,0.2L84.6,143.7z M87.3,152.1c0,0.2,0,0.4-0.2,0.6c-0.1,0.2-0.3,0.3-0.6,0.3    c-0.3,0-0.5,0-0.7-0.2c-0.2-0.1-0.3-0.3-0.3-0.6c0-0.2,0-0.4,0.2-0.6s0.3-0.3,0.6-0.3c0.3,0,0.5,0,0.7,0.2    C87.2,151.7,87.3,151.8,87.3,152.1z"></path>
		<path d="M78.1,144.8c0.4-0.5,1.1-0.8,1.9-0.9c0.7,0,1.3,0.2,1.7,0.6c0.4,0.4,0.6,1,0.6,1.9l0.2,4.4l-1.5,0.1l-0.2-4.4    c0-0.9-0.4-1.3-1.1-1.3c-0.7,0-1.2,0.3-1.5,0.9l0.2,4.9l-1.5,0.1l-0.2-6.8l1.5,0L78.1,144.8z"></path>
		<path d="M72.2,150.9l0-0.7c-0.5,0.5-1.2,0.7-2.1,0.6c-0.9-0.1-1.5-0.5-1.8-1.2c-0.6,0.6-1.3,0.9-2.2,0.8c-0.8-0.1-1.3-0.4-1.6-0.8    c-0.3-0.5-0.4-1.1-0.4-1.9l0.5-4.5l1.5,0.2l-0.5,4.4c0,0.4,0,0.8,0.2,1c0.2,0.2,0.5,0.4,0.9,0.4c0.3,0,0.6,0,0.9-0.2    s0.4-0.4,0.5-0.7l0.5-4.7l1.5,0.2l-0.5,4.5c-0.1,0.8,0.3,1.2,1.1,1.3c0.6,0.1,1.1-0.1,1.4-0.6l0.5-4.9l1.5,0.2l-0.7,6.8    L72.2,150.9z"></path>
		<path d="M51.9,143c0.3-1,0.8-1.7,1.5-2.2c0.7-0.5,1.4-0.5,2.1-0.3c0.7,0.2,1.2,0.7,1.5,1.3l1-3.1l1.5,0.5l-3,9l-1.3-0.4l0.2-0.7    c-0.6,0.4-1.3,0.5-2,0.2c-0.8-0.3-1.3-0.8-1.6-1.5C51.5,145,51.6,144.1,51.9,143L51.9,143z M53.4,143.6c-0.2,0.6-0.3,1.2-0.1,1.7    s0.4,0.8,0.9,0.9c0.6,0.2,1.1,0.1,1.5-0.3l0.9-2.9c-0.1-0.6-0.5-1-1.1-1.2c-0.5-0.2-0.9-0.1-1.3,0.2    C53.9,142.3,53.6,142.8,53.4,143.6z"></path>
		<path d="M50,142.4c-0.3,0.6-0.7,1.1-1.1,1.5c-0.5,0.4-1,0.6-1.5,0.7c-0.6,0.1-1.1,0-1.7-0.3c-0.8-0.4-1.4-1-1.7-1.8    c-0.3-0.8-0.2-1.6,0.2-2.5l0.1-0.3c0.3-0.6,0.7-1.1,1.1-1.5c0.5-0.4,1-0.6,1.5-0.6c0.6-0.1,1.1,0,1.7,0.3c0.9,0.4,1.4,1,1.7,1.9    S50.4,141.3,50,142.4L50,142.4z M48.6,141.6c0.3-0.6,0.4-1.2,0.3-1.7c-0.1-0.5-0.4-0.8-0.9-1.1c-0.5-0.2-0.9-0.2-1.4,0    c-0.4,0.2-0.8,0.7-1.1,1.4c-0.3,0.6-0.4,1.2-0.3,1.7c0.1,0.5,0.4,0.8,0.8,1.1c0.5,0.2,0.9,0.2,1.3,0    C47.9,142.8,48.3,142.3,48.6,141.6z"></path>
		<path d="M38.1,138.4c0.2,0.1,0.3,0.3,0.5,0.4c0.6,0.4,1.2,0.4,1.6,0l2.4-4l1.3,0.8l-3.5,5.9l-1.3-0.7l0.4-0.7    c-0.6,0.3-1.2,0.3-1.8,0c-0.2-0.1-0.3-0.2-0.4-0.4L38.1,138.4z"></path>
		<path d="M32.6,138.4l1-1.4l-1-0.7l0.7-0.9l1,0.7l2.2-3.1c0.2-0.2,0.2-0.4,0.2-0.6c0-0.2-0.1-0.3-0.4-0.5c-0.1-0.1-0.3-0.2-0.5-0.3    l0.7-1c0.3,0.1,0.6,0.3,0.9,0.5c1,0.7,1.1,1.6,0.3,2.6l-2.2,3.2l0.9,0.7l-0.7,0.9l-0.9-0.7l-1,1.4L32.6,138.4z"></path>
		<path d="M34.6,129.2l-3.6,4.4l0.8,0.7l-0.7,0.9l-0.8-0.7l-0.4,0.5c-0.5,0.6-1,0.9-1.6,1c-0.6,0-1.2-0.2-1.8-0.7    c-0.2-0.2-0.4-0.4-0.6-0.6l0.8-0.9c0.1,0.1,0.2,0.3,0.4,0.4c0.6,0.5,1.1,0.4,1.6-0.2l0.4-0.5l-1.1-0.9l0.7-0.9l1.1,0.9l3.6-4.4    L34.6,129.2z"></path>
		<path d="M28.7,128.8c-0.5,0.5-1,0.8-1.6,1c-0.6,0.2-1.1,0.2-1.7,0.1c-0.5-0.1-1-0.4-1.5-0.9c-0.7-0.7-1-1.4-0.9-2.2    c0-0.8,0.4-1.6,1-2.3l0.3-0.3c0.5-0.5,1-0.8,1.6-1c0.6-0.2,1.1-0.2,1.7-0.1c0.5,0.1,1,0.4,1.5,0.9c0.7,0.7,1,1.5,0.9,2.3    C29.9,127.2,29.5,128,28.7,128.8L28.7,128.8z M27.7,127.6c0.5-0.5,0.8-1,0.9-1.5c0.1-0.5-0.1-0.9-0.4-1.3    c-0.4-0.4-0.8-0.5-1.3-0.4c-0.5,0.1-1,0.4-1.6,0.9c-0.5,0.5-0.8,1-0.9,1.5c-0.1,0.5,0.1,0.9,0.4,1.3c0.4,0.4,0.8,0.5,1.3,0.4    C26.6,128.5,27.2,128.2,27.7,127.6z"></path>
		<path d="M24.4,119l1,1.2l-7.5,6.2l-1-1.2L24.4,119z"></path>
		<path d="M15.9,122.1c-0.2,0.1-0.4,0.2-0.6,0.2c-0.2,0-0.4-0.2-0.6-0.4s-0.2-0.4-0.2-0.7c0-0.2,0.2-0.4,0.3-0.5    c0.2-0.1,0.4-0.2,0.6-0.2c0.2,0,0.4,0.2,0.6,0.4c0.2,0.2,0.2,0.4,0.2,0.7C16.2,121.8,16.1,122,15.9,122.1z M21.9,115.7l0.9,1.2    l-5.5,4l-0.9-1.2L21.9,115.7z"></path>
		<path d="M17.6,115.8c-0.6,0.3-1.2,0.5-1.8,0.6c-0.6,0-1.1-0.1-1.6-0.3c-0.5-0.3-0.9-0.7-1.2-1.2c-0.5-0.8-0.6-1.6-0.4-2.4    c0.2-0.8,0.7-1.5,1.6-2l0.3-0.2c0.6-0.3,1.2-0.5,1.8-0.6c0.6-0.1,1.1,0.1,1.6,0.3c0.5,0.3,0.9,0.7,1.2,1.2    c0.5,0.8,0.6,1.7,0.4,2.5C19.2,114.5,18.6,115.2,17.6,115.8L17.6,115.8z M17,114.4c0.6-0.4,1-0.8,1.2-1.2s0.2-0.9-0.1-1.3    c-0.3-0.4-0.6-0.7-1.1-0.7c-0.5,0-1.1,0.1-1.8,0.5c-0.6,0.4-1,0.8-1.2,1.2c-0.2,0.5-0.2,0.9,0.1,1.4c0.3,0.4,0.6,0.7,1.1,0.7    C15.7,115,16.3,114.8,17,114.4z"></path>
		<path d="M10.7,98.3l-4.8,0.6l-0.5-1.4l7.1-0.6l0.4,1.2l-3.9,3l4.9-0.2l0.4,1.2l-5.8,4.1L8,104.7l4-2.6l-4.9,0.3l-0.4-1.1    L10.7,98.3z"></path>
		<path d="M11,90.5c0.2,1,0.1,1.8-0.4,2.5c-0.5,0.7-1.2,1.2-2.2,1.4l-0.2,0c-0.7,0.1-1.3,0.1-1.9,0c-0.6-0.1-1.1-0.4-1.5-0.8    c-0.4-0.4-0.7-0.9-0.8-1.5c-0.2-0.9-0.1-1.7,0.4-2.3c0.5-0.6,1.2-1,2.3-1.3l0.6-0.1l0.9,4.4c0.5-0.2,0.9-0.4,1.2-0.8    c0.3-0.4,0.3-0.8,0.2-1.3c-0.1-0.7-0.5-1.2-1.2-1.5l0.6-1c0.5,0.2,0.8,0.5,1.2,0.9S10.8,89.9,11,90.5z M5.3,91.9    c0.1,0.4,0.3,0.7,0.6,0.9C6.2,93,6.7,93.1,7.2,93l-0.6-2.9l-0.1,0c-0.5,0.1-0.8,0.4-1.1,0.6C5.2,91.1,5.2,91.5,5.3,91.9z"></path>
		<path d="M6.1,80.3c1.1-0.1,1.9,0.1,2.6,0.5c0.7,0.4,1,1,1.1,1.9c0.1,0.8-0.2,1.4-0.7,1.9l0.7,0L10,86l-9.7,0.9l-0.1-1.5l3.5-0.3    c-0.6-0.4-0.9-1-1-1.7c-0.1-0.8,0.2-1.5,0.7-2C4,80.8,4.9,80.4,6.1,80.3L6.1,80.3z M6.1,81.9c-0.7,0.1-1.3,0.3-1.6,0.6    C4.1,82.7,4,83.1,4,83.6c0.1,0.7,0.4,1.1,1,1.3l2.8-0.3c0.6-0.3,0.8-0.8,0.8-1.5c0-0.5-0.3-0.8-0.6-1.1c-0.4-0.2-0.9-0.3-1.7-0.2    L6.1,81.9z"></path>
		<path d="M5.9,74C4.8,74,4,73.6,3.4,73.1c-0.6-0.5-0.9-1.2-0.8-2c0.1-0.7,0.4-1.3,0.9-1.7L0,69.1l0.1-1.5l9.7,0.8l-0.1,1.4l-0.7,0    c0.5,0.5,0.7,1.1,0.7,1.9c-0.1,0.8-0.4,1.4-1.1,1.9C7.9,73.9,7,74.1,5.9,74z M6.1,72.5c0.7,0.1,1.2,0,1.7-0.3    c0.4-0.2,0.6-0.6,0.7-1.1c0-0.6-0.2-1.1-0.7-1.4l-2.9-0.2c-0.6,0.2-0.9,0.7-0.9,1.3c0,0.5,0.1,0.9,0.5,1.2    C4.8,72.3,5.3,72.5,6.1,72.5z"></path>
		<path d="M10.8,63.1c-0.2,1-0.6,1.7-1.4,2.1c-0.7,0.5-1.6,0.6-2.6,0.4l-0.2,0C6,65.5,5.5,65.3,5,64.9c-0.5-0.4-0.8-0.8-1-1.3    c-0.2-0.5-0.2-1.1-0.1-1.7C4,61,4.4,60.4,5.1,60c0.7-0.4,1.6-0.5,2.6-0.3l0.6,0.1l-0.9,4.4c0.6,0.1,1,0,1.4-0.3    c0.4-0.3,0.6-0.6,0.7-1.1c0.1-0.7,0-1.3-0.5-1.9l0.9-0.7c0.3,0.3,0.6,0.8,0.7,1.3C10.9,62.1,11,62.6,10.8,63.1z M5,62.2    C5,62.6,5,63,5.3,63.3c0.2,0.3,0.6,0.6,1.1,0.7L7,61.1l-0.1,0c-0.5-0.1-0.9,0-1.2,0.2C5.3,61.5,5.1,61.8,5,62.2z"></path>
		<path d="M11.1,54.4c-0.3-0.1-0.5,0-0.7,0.1c-0.2,0.2-0.4,0.5-0.7,1c-0.3,0.5-0.5,0.8-0.8,1.1c-0.6,0.6-1.2,0.8-1.9,0.6    c-0.6-0.2-1-0.6-1.2-1.2c-0.2-0.6-0.2-1.3,0-2c0.2-0.8,0.6-1.4,1.2-1.7c0.5-0.4,1.1-0.4,1.7-0.2l-0.5,1.5    c-0.3-0.1-0.5-0.1-0.8,0.1c-0.3,0.2-0.4,0.4-0.5,0.7c-0.1,0.3-0.1,0.6,0,0.9c0.1,0.3,0.3,0.4,0.5,0.5c0.2,0.1,0.4,0,0.6-0.1    c0.2-0.1,0.4-0.5,0.7-1c0.3-0.5,0.6-0.9,0.9-1.2c0.3-0.3,0.6-0.4,0.9-0.5c0.3-0.1,0.6-0.1,1,0c0.6,0.2,1,0.6,1.2,1.2    c0.2,0.6,0.2,1.3-0.1,2.1c-0.2,0.5-0.4,1-0.7,1.3c-0.3,0.4-0.7,0.6-1.1,0.7c-0.4,0.1-0.8,0.1-1.2,0l0.5-1.4c0.4,0.1,0.7,0,0.9-0.1    c0.3-0.2,0.5-0.5,0.6-0.9c0.1-0.4,0.1-0.7,0.1-1C11.5,54.6,11.4,54.4,11.1,54.4z"></path>
		<path d="M6.2,48.3c-0.2-0.1-0.4-0.2-0.5-0.4c-0.1-0.2-0.1-0.4,0-0.7c0.1-0.3,0.3-0.4,0.5-0.5c0.2-0.1,0.4-0.1,0.6,0    c0.2,0.1,0.4,0.2,0.4,0.4c0.1,0.2,0.1,0.4,0,0.7S7,48.2,6.8,48.3C6.6,48.4,6.4,48.4,6.2,48.3z M14.8,50.1l-0.6,1.4l-6.3-2.6    l0.6-1.4L14.8,50.1z"></path>
		<path d="M12.5,46.5c-0.9-0.5-1.6-1.1-1.9-1.8c-0.3-0.7-0.3-1.5,0.1-2.2c0.4-0.7,0.9-1.1,1.6-1.3l-0.6-0.4l0.6-1.2l5.9,3.1    c0.8,0.4,1.3,1,1.5,1.7c0.2,0.7,0.1,1.5-0.4,2.4c-0.2,0.4-0.6,0.8-1,1.2c-0.4,0.3-0.8,0.5-1.2,0.6l-0.5-1.1    c0.7-0.2,1.2-0.5,1.6-1.2c0.2-0.5,0.3-0.9,0.2-1.3c-0.1-0.4-0.4-0.7-0.9-1l-0.4-0.2c0.2,0.6,0.2,1.3-0.2,1.9    c-0.4,0.7-1,1.1-1.8,1.3C14.4,47.2,13.5,47,12.5,46.5z M13.3,45.2c0.6,0.3,1.2,0.4,1.6,0.4c0.5-0.1,0.8-0.3,1.1-0.8    c0.3-0.5,0.3-1.1-0.1-1.6l-2.7-1.4c-0.6,0-1,0.3-1.3,0.9c-0.2,0.4-0.2,0.9,0,1.3C12.2,44.4,12.6,44.8,13.3,45.2z"></path>
		<path d="M14.7,35.8l0.7,0.4c-0.2-0.8-0.1-1.5,0.4-2.2c0.8-1.2,1.9-1.3,3.3-0.4l3.7,2.6l-0.9,1.3l-3.7-2.5c-0.4-0.2-0.7-0.3-1-0.3    c-0.3,0-0.5,0.2-0.8,0.6c-0.4,0.5-0.4,1.1-0.1,1.6l4,2.7l-0.9,1.3L13.9,37L14.7,35.8z"></path>
		<path d="M26.4,26.9l-2.3,2.4l-0.9-0.8l2.3-2.4L26.4,26.9z"></path>
	</g>
	<g>
		<g>
			<path d="M86.9,94.9c-4.9,2.6-10.6,3.2-16,1.6c-5.4-1.6-9.8-5.2-12.4-10.2c-2.6-4.9-3.2-10.6-1.6-16c1.6-5.4,5.2-9.8,10.2-12.4     c4.9-2.6,10.6-3.2,16-1.6c5.4,1.6,9.8,5.2,12.4,10.2c2.6,4.9,3.2,10.6,1.6,16C95.4,87.9,91.8,92.3,86.9,94.9z M67.7,59.1     c-9.6,5.1-13.2,17.1-8.1,26.7S76.7,99,86.3,93.9s13.2-17.1,8.1-26.7C89.3,57.6,77.3,54,67.7,59.1z"></path>
		</g>
		<ellipse transform="matrix(0.8808 -0.4735 0.4735 0.8808 -26.2509 40.904)" cx="68.1" cy="72.6" rx="2.1" ry="3.1"></ellipse>
		<ellipse transform="matrix(0.8808 -0.4735 0.4735 0.8808 -22.3788 45.1592)" cx="78.5" cy="67" rx="2.1" ry="3.1"></ellipse>
		<g>
			<path d="M83.1,88c-5.5,2.9-12.3,0.9-15.2-4.6c-0.2-0.3,0-0.7,0.2-0.8c0.3-0.2,0.7,0,0.8,0.2c2.6,4.9,8.7,6.7,13.6,4.1     c4.9-2.6,6.7-8.7,4.1-13.6c-0.2-0.3,0-0.7,0.2-0.8c0.3-0.2,0.7,0,0.8,0.2C90.7,78.2,88.6,85,83.1,88z"></path>
		</g>
	</g>
</g>

</svg>